<svg width="220" height="64" viewBox="0 0 220 64" fill="none" xmlns="http://www.w3.org/2000/svg">
  <rect width="64" height="64" rx="20" fill="url(#paint0_linear)" />
  <path
    d="M21 21.5C21 16.8056 24.8056 13 29.5 13H43.75C46.0972 13 48 14.9028 48 17.25C48 19.5972 46.0972 21.5 43.75 21.5H31.5C30.1193 21.5 29 22.6193 29 24V24.25C29 25.6307 30.1193 26.75 31.5 26.75H39.75C44.8586 26.75 49 30.8914 49 36V36C49 41.1086 44.8586 45.25 39.75 45.25H24.25C21.9028 45.25 20 43.3472 20 41C20 38.6528 21.9028 36.75 24.25 36.75H37.75C39.1307 36.75 40.25 35.6307 40.25 34.25V34.25C40.25 32.8693 39.1307 31.75 37.75 31.75H30.25C25.1414 31.75 21 27.6086 21 22.5V21.5Z"
    fill="#F8FAFC"
  />
  <path
    d="M87 22.2C91.4 22.2 94.52 24.24 96.26 27.28L92.18 29.54C91.2 27.72 89.34 26.58 86.96 26.58C83.62 26.58 81.34 28.92 81.34 32.44C81.34 35.96 83.62 38.3 86.96 38.3C89.38 38.3 91.22 37.16 92.28 35.34L96.4 37.52C94.58 40.62 91.4 42.68 86.96 42.68C80.88 42.68 76.64 38.44 76.64 32.44C76.64 26.44 80.88 22.2 87 22.2Z"
    fill="#0F172A"
  />
  <path
    d="M103.27 26.1C104.47 23.56 106.91 22.2 109.97 22.2V27.44C106.41 27 103.27 28.64 103.27 32.98V42.1H98.51V22.78H103.27V26.1Z"
    fill="#0F172A"
  />
  <path
    d="M115.973 20.36C114.373 20.36 113.013 19 113.013 17.4C113.013 15.8 114.373 14.44 115.973 14.44C117.613 14.44 118.973 15.8 118.973 17.4C118.973 19 117.613 20.36 115.973 20.36ZM113.593 42.1V22.78H118.353V42.1H113.593Z"
    fill="#0F172A"
  />
  <path
    d="M128.777 42.68C124.897 42.68 121.777 40.94 120.417 38.3L124.537 35.98C125.157 37.78 126.757 38.8 128.857 38.8C130.817 38.8 131.957 38.12 131.957 36.98C131.957 34.14 121.297 35.68 121.297 28.58C121.297 24.62 124.677 22.2 128.557 22.2C131.677 22.2 134.437 23.66 135.957 26.18L131.917 28.4C131.257 27.02 129.977 26.04 128.557 26.04C127.057 26.04 126.037 26.7 126.037 27.84C126.037 30.54 136.697 29.08 136.697 36.32C136.697 40.2 133.357 42.68 128.777 42.68Z"
    fill="#0F172A"
  />
  <path
    d="M143.42 20.36C141.82 20.36 140.46 19 140.46 17.4C140.46 15.8 141.82 14.44 143.42 14.44C145.06 14.44 146.42 15.8 146.42 17.4C146.42 19 145.06 20.36 143.42 20.36ZM141.04 42.1V22.78H145.8V42.1H141.04Z"
    fill="#0F172A"
  />
  <path
    d="M160.063 38.22C162.143 38.22 163.703 37.3 164.503 36.1L168.323 38.3C166.563 40.88 163.703 42.68 160.003 42.68C153.403 42.68 149.203 38.18 149.203 32.44C149.203 26.7 153.443 22.2 159.663 22.2C165.543 22.2 169.583 26.8 169.583 32.44C169.583 33.12 169.503 33.78 169.383 34.36H154.183C154.843 37 157.003 38.22 160.063 38.22ZM164.843 30.56C164.283 27.68 162.103 26.5 159.603 26.5C156.643 26.5 154.703 28.08 154.123 30.56H164.843Z"
    fill="#0F172A"
  />
  <path
    d="M176.535 26.1C177.735 23.56 180.175 22.2 183.235 22.2V27.44C179.675 27 176.535 28.64 176.535 32.98V42.1H171.775V22.78H176.535V26.1Z"
    fill="#0F172A"
  />
  <defs>
    <linearGradient id="paint0_linear" x1="8" y1="6.5" x2="58.5" y2="59.5" gradientUnits="userSpaceOnUse">
      <stop stop-color="#0F172A" />
      <stop offset="0.55" stop-color="#2563EB" />
      <stop offset="1" stop-color="#0F766E" />
    </linearGradient>
  </defs>
</svg>
